<svg width="39" height="39" viewBox="0 0 39 39" fill="none" xmlns="http://www.w3.org/2000/svg">
<path d="M6.00886 24.2437C5.82231 23.7123 5.88376 23.1175 6.17735 22.6117L6.82834 21.4904C6.90383 21.3603 7.02775 21.2626 7.17301 21.2185C7.31824 21.1745 7.47274 21.1877 7.60261 21.2555L7.72729 21.3205L9.20987 18.7667C9.21003 18.7664 9.32404 18.57 9.32404 18.57C8.3455 17.6432 7.63024 16.4803 7.24612 15.1803C7.05371 14.5292 6.94933 13.8582 6.9324 13.1819L5.30013 13.6771C4.99779 13.7688 4.68772 13.6071 4.60761 13.3159C4.52757 13.0247 4.70761 12.7144 5.01015 12.6225L6.98905 12.0222C7.04777 11.5433 7.15 11.0658 7.29614 10.595C7.45842 10.072 7.81651 9.63321 8.30569 9.35786C8.7944 9.08304 9.35481 9.00571 9.88369 9.14004C10.4126 9.27437 10.8466 9.60432 11.1059 10.0691C11.2188 10.2714 11.2926 10.4889 11.3265 10.713C11.6015 10.6696 11.8654 10.8268 11.9383 11.092C12.0054 11.3359 11.8899 11.5932 11.673 11.7243C11.6309 11.7498 11.5849 11.7705 11.5358 11.7854L11.1772 11.8942C10.9518 12.8671 11.0949 13.8607 11.57 14.7012L14.1221 10.3053C14.2792 10.0346 14.6259 9.92939 14.8964 10.0704C15.1668 10.2114 15.2586 10.5453 15.1014 10.816L14.7249 11.4646C14.8664 11.4928 15.0039 11.5405 15.1335 11.6082L18.6027 13.4174C18.7338 13.4857 18.8493 13.5709 18.949 13.6683L19.4676 12.7749C19.7288 12.3251 20.1494 11.9934 20.6517 11.841C21.1541 11.6886 21.6783 11.7337 22.1276 11.968C22.924 12.3833 23.269 13.2891 23.0095 14.1248L24.2592 14.7766C24.7955 14.0975 25.7594 13.862 26.5243 14.261L33.5592 17.9296C34.3241 18.3285 34.6303 19.2262 34.312 20.019L35.9908 20.8944C36.0612 20.9312 36.1219 20.9826 36.1688 21.0454L37.9057 23.3652C38.0335 23.5358 38.044 23.7682 37.9327 23.96C37.8817 24.0478 37.8094 24.1198 37.7248 24.1709C37.6248 24.2313 37.5076 24.2626 37.3882 24.2566L34.391 24.1077C34.31 24.1036 34.2316 24.0825 34.1613 24.0459L32.4822 23.1702C32.3417 23.3481 32.1723 23.496 31.9844 23.6095C31.455 23.9294 30.7819 23.9805 30.2175 23.6861L23.1826 20.0173C22.4177 19.6184 22.1115 18.7207 22.4298 17.9279L21.2243 17.2992L20.8788 17.8944C20.5757 18.4165 20.1518 18.8336 19.6627 19.1292C18.8217 19.6374 17.7881 19.7854 16.8471 19.487L13.776 24.777C13.856 24.9123 13.9188 25.0591 13.9617 25.2153C14.0949 25.6996 14.0243 26.2144 13.7628 26.6648C13.589 26.9641 13.3412 27.2129 13.0477 27.3902C12.8638 27.5013 12.662 27.5844 12.4492 27.6342C11.8971 27.7635 11.3258 27.6559 10.8819 27.3391C9.74117 26.5247 8.48602 25.8676 7.15122 25.3862C6.61174 25.1915 6.19542 24.7751 6.00886 24.2437ZM12.9311 24.0343L13.6565 22.7849C13.515 22.7567 13.3775 22.7089 13.2479 22.6413L9.77865 20.8321C9.64759 20.7637 9.53207 20.6787 9.43236 20.5813L8.70672 21.8311L12.9311 24.0343ZM11.1056 17.812C11.0414 17.8507 10.9858 17.9055 10.946 17.974L10.1895 19.2771C10.0688 19.4855 10.1397 19.7432 10.3478 19.8517L13.8171 21.6609C13.9179 21.7135 14.0355 21.7236 14.1483 21.6894C14.2611 21.6552 14.3555 21.5807 14.4142 21.4798L15.1703 20.1772C15.229 20.0762 15.2448 19.9608 15.2149 19.8522C15.1851 19.7436 15.1131 19.6549 15.0122 19.6022L11.543 17.793C11.4033 17.7201 11.2367 17.7327 11.1056 17.812ZM9.55155 10.2108C9.31197 10.15 9.05807 10.185 8.83664 10.3095C8.61543 10.4334 8.45278 10.6331 8.37924 10.87C7.63798 13.2587 8.24289 15.8077 9.91747 17.548L10.9266 15.8097C9.96953 14.5431 9.68646 12.8949 10.1734 11.3257C10.2469 11.0888 10.2228 10.8423 10.1053 10.6317C9.98785 10.4212 9.79119 10.2716 9.55155 10.2108ZM18.0336 14.3979L14.5644 12.5886C14.4246 12.5158 14.2581 12.5284 14.127 12.6076C14.0628 12.6464 14.0071 12.7013 13.9673 12.7698L13.2111 14.0724C13.0902 14.2809 13.1611 14.5388 13.3693 14.6474L16.8385 16.4565C16.9394 16.5092 17.057 16.5193 17.1698 16.4851C17.2826 16.4509 17.377 16.3764 17.4356 16.2754L18.1917 14.9729C18.2504 14.8719 18.2662 14.7565 18.2363 14.6478C18.2064 14.5392 18.1344 14.4505 18.0336 14.3979ZM16.2692 17.4371L12.8 15.6279C12.6689 15.5595 12.5534 15.4745 12.4537 15.377L11.7033 16.6695C11.8436 16.6972 11.9812 16.7442 12.1123 16.8126L15.5814 18.6218C15.7111 18.6894 15.8272 18.7739 15.9281 18.8721L16.6779 17.5807C16.5363 17.5524 16.3988 17.5046 16.2692 17.4371ZM28.2973 21.4073L30.5007 17.612L28.4445 16.5396L26.2412 20.335L28.2973 21.4073ZM34.6236 23.0096L36.2671 23.0912L35.3147 21.8192L33.7595 21.0082L33.0684 22.1985L34.6236 23.0096ZM30.7866 22.7055C31.0878 22.8625 31.4753 22.745 31.6503 22.4434L33.2187 19.7419C33.3938 19.4403 33.2912 19.0672 32.99 18.9101L31.48 18.1226L29.2766 21.9179L30.7866 22.7055ZM23.7518 19.0368L25.2618 19.8242L27.4651 16.0289L25.9552 15.2414C25.753 15.136 25.5121 15.1543 25.3225 15.2688C25.2296 15.325 25.149 15.4043 25.0914 15.5034L23.5231 18.205C23.348 18.5065 23.4506 18.8797 23.7518 19.0368ZM22.9824 16.9386L23.6734 15.7482L22.4845 15.1282L21.7934 16.3186L22.9824 16.9386ZM19.8994 17.3836L21.8528 14.0188C22.078 13.6307 21.946 13.1506 21.5585 12.9485C21.3707 12.8506 21.1518 12.8318 20.9418 12.8954C20.7317 12.9591 20.5562 13.0977 20.447 13.2857L17.4293 18.484C18.3635 18.6889 19.3903 18.2604 19.8994 17.3836ZM7.58653 24.3468C9.01454 24.8619 10.3574 25.5648 11.5778 26.4361C11.7663 26.5706 11.9992 26.6145 12.2337 26.5596C12.4682 26.5047 12.6634 26.3607 12.7834 26.1539C12.8929 25.9654 12.9224 25.75 12.8667 25.5473C12.8109 25.3446 12.6765 25.1789 12.4883 25.0807L7.52312 22.4913L7.15679 23.1224C7.02534 23.3488 6.9989 23.6047 7.0824 23.8426C7.16592 24.0806 7.34494 24.2597 7.58653 24.3468Z" fill="white"/>
</svg>
